<svg xmlns="http://www.w3.org/2000/svg" width="64" height="64" viewBox="0 0 64 64"><path fill="#ff9421" d="M44.728 47.728c-.768 0-1.535-.293-2.12-.88-1.172-1.17-1.172-3.07 0-4.24 5.848-5.85 5.848-15.366 0-21.214s-15.366-5.848-21.214 0C18.56 24.227 17 27.994 17 32s1.56 7.774 4.394 10.608c1.172 1.172 1.172 3.07 0 4.242s-3.07 1.172-4.242 0c-3.966-3.966-6.15-9.24-6.15-14.85s2.183-10.882 6.15-14.848c8.188-8.188 21.51-8.188 29.698 0s8.188 21.51 0 29.698c-.586.586-1.353.88-2.12.88z"/><path fill="#ff9421" d="M52.506 55.506c-.768 0-1.535-.293-2.12-.88-1.173-1.17-1.173-3.07 0-4.24 10.137-10.138 10.137-26.633 0-36.77s-26.633-10.138-36.77 0c-10.138 10.136-10.138 26.63 0 36.77 1.172 1.17 1.172 3.07 0 4.24s-3.07 1.173-4.243 0C3.33 48.584 0 40.547 0 32S3.33 15.415 9.373 9.37C15.417 3.328 23.453 0 32 0s16.584 3.33 22.63 9.373C60.672 15.416 64 23.45 64 32s-3.33 16.582-9.373 22.627c-.587.586-1.355.88-2.122.88z"/><path fill="#ff9421" d="M38 60h-2.005L36 38.927c2.39-1.383 4-3.966 4-6.927 0-4.418-3.582-8-8-8s-8 3.582-8 8c0 2.96 1.61 5.544 4 6.927L27.995 60H26c-1.105 0-2 .895-2 2s.895 2 2 2h12c1.105 0 2-.895 2-2s-.895-2-2-2z"/></svg>
