<svg xmlns="http://www.w3.org/2000/svg" width="64" height="64" viewBox="0 0 64 64"><path fill="#e1e7ef" d="M58.362 38.14c-3.358-5.815-1.34-13.268 4.51-16.654l-6.29-10.893c-1.796 1.053-3.885 1.657-6.114 1.657-6.72 0-12.17-5.484-12.17-12.25H25.72c.017 2.09-.505 4.206-1.622 6.142-3.358 5.816-10.822 7.794-16.68 4.422L1.13 21.457c1.81 1.03 3.378 2.537 4.493 4.467C8.975 31.73 6.968 39.17 1.14 42.564l6.29 10.892c1.79-1.044 3.87-1.64 6.088-1.64 6.7 0 12.134 5.45 12.17 12.184h12.577c-.005-2.067.517-4.16 1.623-6.076 3.352-5.807 10.798-7.787 16.65-4.438l6.29-10.893c-1.8-1.03-3.356-2.53-4.465-4.452zM32 44.96c-7.157 0-12.96-5.8-12.96-12.958S24.844 19.042 32 19.042c7.157 0 12.958 5.802 12.958 12.958S39.158 44.958 32 44.958z"/></svg>
