<svg xmlns="http://www.w3.org/2000/svg" width="64" height="64" viewBox="0 0 64 64"><path fill="#e1e7ef" d="M30 4C13.43 4 0 17.43 0 34s13.43 30 30 30 30-13.43 30-30S46.57 4 30 4zm16.974 40c.536-2.528.875-5.212.985-8h7.964c-.21 2.762-.852 5.445-1.917 8h-7.033zM13.026 24c-.536 2.528-.875 5.212-.985 8H4.077c.208-2.762.85-5.445 1.917-8h7.033zm29.85 0c.602 2.56.963 5.24 1.08 8H32v-8h10.877zM32 20V8.29c.912.266 1.815.712 2.702 1.337 1.66 1.17 3.25 2.976 4.596 5.218.93 1.55 1.734 3.276 2.406 5.155H32zm-11.298-5.155c1.346-2.242 2.935-4.047 4.596-5.218.886-.625 1.79-1.07 2.702-1.336V20h-9.704c.672-1.88 1.476-3.605 2.406-5.155zM28 24v8H16.043c.117-2.76.48-5.44 1.08-8H28zM5.993 44c-1.066-2.555-1.71-5.238-1.917-8h7.965c.11 2.788.45 5.472.986 8H5.993zm10.05-8H28v8H17.123c-.6-2.56-.962-5.24-1.08-8zM28 48v11.71c-.912-.266-1.815-.712-2.702-1.337-1.662-1.17-3.25-2.976-4.596-5.218-.93-1.55-1.734-3.276-2.406-5.155H28zm11.298 5.155c-1.346 2.242-2.935 4.047-4.596 5.218-.886.625-1.79 1.07-2.702 1.336V48h9.704c-.672 1.88-1.476 3.605-2.406 5.155zM32 44v-8h11.957c-.117 2.76-.48 5.44-1.08 8H32zm15.96-12c-.11-2.788-.45-5.472-.986-8h7.033c1.066 2.555 1.71 5.238 1.917 8H47.96zm3.956-12h-5.994c-1.165-3.673-2.773-6.893-4.707-9.464 2.66 1.27 5.066 2.976 7.17 5.08 1.343 1.34 2.523 2.808 3.53 4.384zm-40.3-4.385c2.103-2.104 4.51-3.808 7.17-5.08-1.935 2.572-3.543 5.793-4.708 9.465H8.084c1.01-1.576 2.19-3.042 3.53-4.385zM8.083 48h5.994c1.165 3.673 2.774 6.893 4.707 9.464-2.66-1.27-5.066-2.976-7.17-5.08-1.342-1.342-2.523-2.81-3.53-4.385zm40.3 4.385c-2.102 2.104-4.51 3.808-7.17 5.08 1.935-2.57 3.543-5.792 4.708-9.464h5.994c-1.01 1.577-2.19 3.043-3.53 4.386z"/></svg>
