<svg xmlns="http://www.w3.org/2000/svg" width="64" height="64" viewBox="0 0 64 64"><path fill="#e1e7ef" d="M64 12.15c-2.355 1.045-4.885 1.75-7.54 2.068 2.71-1.625 4.792-4.198 5.772-7.264-2.537 1.505-5.347 2.597-8.338 3.186-2.395-2.552-5.808-4.146-9.584-4.146-7.25 0-13.13 5.88-13.13 13.13 0 1.03.116 2.03.34 2.992-10.912-.548-20.588-5.775-27.064-13.72-1.13 1.94-1.778 4.196-1.778 6.602 0 4.556 2.318 8.575 5.84 10.93-2.15-.07-4.176-.66-5.946-1.643v.165c0 6.362 4.525 11.668 10.532 12.875-1.102.3-2.262.46-3.46.46-.845 0-1.668-.082-2.47-.235 1.672 5.216 6.52 9.013 12.267 9.118-4.493 3.522-10.154 5.62-16.306 5.62-1.06 0-2.105-.06-3.132-.183 5.81 3.726 12.713 5.9 20.128 5.9 24.15 0 37.358-20.008 37.358-37.36 0-.568-.013-1.135-.038-1.698 2.566-1.85 4.792-4.164 6.552-6.797z"/></svg>
